<?xml version="1.0" encoding="UTF-8"?>
<!DOCTYPE svg PUBLIC "-//W3C//DTD SVG 1.1//EN" "http://www.w3.org/Graphics/SVG/1.1/DTD/svg11.dtd">
<svg version="1.1" xmlns="http://www.w3.org/2000/svg" xmlns:xlink="http://www.w3.org/1999/xlink" x="0" y="0" width="1024" height="1024" viewBox="0, 0, 1024, 1024">
  <defs>
    <clipPath id="Clip_1">
      <path d="M73.56,85.162 L951.44,85.162 L951.44,740.07 L73.56,740.07 z M224.466,111.219 C221.287,112.469 222.517,111.679 220.57,113.229 C217.604,116.121 217.545,120.87 220.436,123.835 L245.376,149.408 C248.267,152.374 253.016,152.434 255.981,149.542 C258.947,146.65 259.006,141.901 256.114,138.936 L231.176,113.363 C228.875,111.435 227.53,110.985 224.466,111.219 z M800.534,111.219 C797.43,111.258 796.266,111.074 793.824,113.363 L768.885,138.936 C765.994,141.901 766.053,146.65 769.019,149.542 C771.984,152.434 776.733,152.374 779.624,149.408 L804.563,123.835 C807.455,120.87 807.396,116.121 804.43,113.229 C802.483,111.679 803.713,112.469 800.534,111.219 z M888.503,246.107 C885.087,246.12 886.52,245.83 884.143,246.569 L851.566,260.421 C847.755,262.042 845.978,266.446 847.599,270.258 C849.22,274.07 853.624,275.846 857.436,274.225 L890.013,260.373 C893.824,258.752 895.601,254.348 893.98,250.536 C892.724,248.251 891.142,246.727 888.503,246.107 z M136.497,246.107 C133.805,247.193 132.304,247.696 131.02,250.536 C129.399,254.348 131.176,258.752 134.987,260.373 L167.564,274.225 C171.376,275.846 175.78,274.07 177.401,270.258 C179.022,266.446 177.245,262.042 173.434,260.421 L140.857,246.569 C138.48,245.83 139.913,246.12 136.497,246.107 z M917.94,405.084 L882.687,405.084 C878.545,405.084 875.187,408.442 875.187,412.584 C875.187,416.727 878.545,420.084 882.687,420.084 L917.94,420.084 C922.082,420.084 925.44,416.727 925.44,412.584 C925.44,408.442 922.082,405.084 917.94,405.084 z M142.312,405.084 L107.06,405.084 C102.918,405.084 99.56,408.442 99.56,412.584 C99.56,416.727 102.918,420.084 107.06,420.084 L142.312,420.084 C146.455,420.084 149.813,416.727 149.812,412.584 C149.813,408.442 146.455,405.084 142.312,405.084 z M171.924,550.482 C168.508,550.494 169.941,550.204 167.564,550.944 L134.987,564.796 C131.176,566.417 129.399,570.821 131.02,574.633 C132.641,578.445 137.045,580.221 140.857,578.6 L173.434,564.748 C177.245,563.127 179.022,558.723 177.401,554.911 C176.145,552.625 174.563,551.102 171.924,550.482 z M853.076,550.482 C850.384,551.567 848.883,552.07 847.599,554.911 C845.978,558.723 847.755,563.127 851.566,564.748 L884.143,578.6 C887.955,580.221 892.359,578.445 893.98,574.633 C895.601,570.821 893.824,566.417 890.013,564.796 L857.436,550.944 C855.059,550.204 856.492,550.494 853.076,550.482 z M772.915,673.617 C769.736,674.866 770.966,674.077 769.019,675.627 C766.053,678.519 765.994,683.268 768.885,686.233 L793.824,711.806 C796.716,714.772 801.465,714.831 804.43,711.939 C807.396,709.047 807.455,704.299 804.563,701.334 L779.624,675.76 C777.324,673.833 775.979,673.383 772.915,673.617 z M252.085,673.617 C248.981,673.656 247.817,673.471 245.376,675.76 L220.436,701.334 C217.545,704.299 217.604,709.047 220.57,711.939 C223.535,714.831 228.284,714.772 231.176,711.806 L256.114,686.233 C259.006,683.268 258.947,678.519 255.981,675.627 C254.034,674.077 255.264,674.866 252.085,673.617 z"/>
    </clipPath>
    <filter id="Shadow_2">
      <feGaussianBlur in="SourceAlpha" stdDeviation="12.5"/>
      <feOffset dx="0" dy="0" result="offsetblur"/>
      <feFlood flood-color="#FFBD30"/>
      <feComposite in2="offsetblur" operator="in"/>
    </filter>
    <radialGradient id="Gradient_1" gradientUnits="userSpaceOnUse" cx="514.723" cy="435.773" r="316.898">
      <stop offset="0" stop-color="#FFF5E1"/>
      <stop offset="1" stop-color="#DB9700"/>
    </radialGradient>
    <clipPath id="Clip_3">
      <path d="M146.802,10.25 L882.644,10.25 L882.644,861.296 L146.802,861.296 z M513.917,61.25 C337.507,61.25 197.802,196.999 197.802,365.939 C197.802,410.333 207.611,452.863 226.339,496.171 C241.195,530.525 259.88,562.399 289.104,605.987 C311.678,639.655 320.841,653.872 330.709,671.4 C343.55,694.21 351.91,713.975 356.211,732.925 C358.411,742.621 359.529,752.074 359.529,761.401 L359.529,810.296 L668.306,810.296 L668.306,761.401 C668.306,752.074 669.424,742.621 671.624,732.925 C675.925,713.975 684.285,694.21 697.126,671.4 C706.994,653.872 716.157,639.655 738.73,605.987 C768.475,561.624 787.18,529.928 802.301,495.459 C821.537,451.605 831.644,408.81 831.644,364.51 C831.644,196.15 690.916,61.25 513.917,61.25 z"/>
    </clipPath>
    <filter id="Shadow_4">
      <feGaussianBlur in="SourceAlpha" stdDeviation="25"/>
      <feOffset dx="0" dy="0" result="offsetblur"/>
      <feFlood flood-color="#D98500"/>
      <feComposite in2="offsetblur" operator="in"/>
    </filter>
  </defs>
  <g id="Logo">
    <g id="Idea_Lamp">
      <g id="Bulb">
        <g id="Lights">
          <path d="M882.687,412.584 L917.94,412.584 M107.06,412.584 L142.313,412.584 M882.687,412.584 L917.94,412.584 M107.06,412.584 L142.313,412.584 M882.687,412.584 L917.94,412.584 M107.06,412.584 L142.313,412.584 M774.255,680.997 L799.194,706.57 M225.806,118.599 L250.745,144.172 M774.255,144.172 L799.194,118.599 M225.806,706.57 L250.745,680.997 M854.501,267.323 L887.078,253.471 M137.922,571.698 L170.499,557.846 M854.501,557.846 L887.078,571.698 M137.922,253.471 L170.499,267.323" fill-opacity="0" stroke="#FFBD30" stroke-width="15" stroke-linecap="round" stroke-miterlimit="10"/>
          <g>
            <path d="M252.085,673.617 C255.264,674.866 254.034,674.077 255.981,675.627 C258.947,678.519 259.006,683.268 256.114,686.233 L231.176,711.806 C228.284,714.772 223.535,714.831 220.57,711.939 C217.604,709.047 217.545,704.299 220.436,701.334 L245.376,675.76 C247.817,673.471 248.981,673.656 252.085,673.617 z M772.915,673.617 C775.979,673.383 777.324,673.833 779.624,675.76 L804.563,701.334 C807.455,704.299 807.396,709.047 804.43,711.939 C801.465,714.831 796.716,714.772 793.824,711.806 L768.885,686.233 C765.994,683.268 766.053,678.519 769.019,675.627 C770.966,674.077 769.736,674.866 772.915,673.617 z M853.076,550.482 C856.492,550.494 855.059,550.204 857.436,550.944 L890.013,564.796 C893.824,566.417 895.601,570.821 893.98,574.633 C892.359,578.445 887.955,580.221 884.143,578.6 L851.566,564.748 C847.755,563.127 845.978,558.723 847.599,554.911 C848.883,552.07 850.384,551.567 853.076,550.482 z M171.924,550.482 C174.563,551.102 176.145,552.625 177.401,554.911 C179.022,558.723 177.245,563.127 173.434,564.748 L140.857,578.6 C137.045,580.221 132.641,578.445 131.02,574.633 C129.399,570.821 131.176,566.417 134.987,564.796 L167.564,550.944 C169.941,550.204 168.508,550.494 171.924,550.482 z M142.312,405.084 C146.455,405.084 149.813,408.442 149.812,412.584 C149.813,416.727 146.455,420.084 142.312,420.084 L107.06,420.084 C102.918,420.084 99.56,416.727 99.56,412.584 C99.56,408.442 102.918,405.084 107.06,405.084 L142.312,405.084 z M917.94,405.084 C922.082,405.084 925.44,408.442 925.44,412.584 C925.44,416.727 922.082,420.084 917.94,420.084 L882.687,420.084 C878.545,420.084 875.187,416.727 875.187,412.584 C875.187,408.442 878.545,405.084 882.687,405.084 L917.94,405.084 z M136.497,246.107 C139.913,246.12 138.48,245.83 140.857,246.569 L173.434,260.421 C177.245,262.042 179.022,266.446 177.401,270.258 C175.78,274.07 171.376,275.846 167.564,274.225 L134.987,260.373 C131.176,258.752 129.399,254.348 131.02,250.536 C132.304,247.696 133.805,247.193 136.497,246.107 z M888.503,246.107 C891.142,246.727 892.724,248.251 893.98,250.536 C895.601,254.348 893.824,258.752 890.013,260.373 L857.436,274.225 C853.624,275.846 849.22,274.07 847.599,270.258 C845.978,266.446 847.755,262.042 851.566,260.421 L884.143,246.569 C886.52,245.83 885.087,246.12 888.503,246.107 z M800.534,111.219 C803.713,112.469 802.483,111.679 804.43,113.229 C807.396,116.121 807.455,120.87 804.563,123.835 L779.624,149.408 C776.733,152.374 771.984,152.434 769.019,149.542 C766.053,146.65 765.994,141.901 768.885,138.936 L793.824,113.363 C796.266,111.074 797.43,111.258 800.534,111.219 z M224.466,111.219 C227.53,110.985 228.875,111.435 231.176,113.363 L256.114,138.936 C259.006,141.901 258.947,146.65 255.981,149.542 C253.016,152.434 248.267,152.374 245.376,149.408 L220.436,123.835 C217.545,120.87 217.604,116.121 220.57,113.229 C222.517,111.679 221.287,112.469 224.466,111.219 z" fill="rgba(0,0,0,0.746)" clip-path="url(#Clip_1)" filter="url(#Shadow_2)"/>
            <path d="M249.798,679.433 C250.55,679.729 251.119,679.938 251.708,680.143 C251.683,680.135 252.05,680.261 252.095,680.278 C252.068,680.268 252.006,680.243 251.892,680.191 C251.537,680.029 251.276,679.859 251.137,679.75 C251.168,679.774 251.767,680.261 252.088,680.517 L255.981,675.627 L251.618,680.102 C252.112,680.584 252.122,681.375 251.64,681.869 L226.701,707.443 C226.219,707.937 225.428,707.947 224.933,707.465 C224.439,706.983 224.429,706.191 224.911,705.697 L249.85,680.124 L245.376,675.76 L249.65,680.32 C249.917,680.07 250.111,679.91 250.238,679.823 C250.255,679.811 250.214,679.833 250.141,679.862 C250.04,679.901 249.978,679.914 250.033,679.909 C250.262,679.887 250.57,679.879 251.398,679.873 C251.797,679.87 251.938,679.869 252.163,679.866 L252.085,673.617 L249.798,679.433 z M254.371,667.8 C253.618,667.504 252.815,667.357 252.006,667.367 C251.811,667.37 251.684,667.371 251.307,667.373 C248.593,667.393 247.442,667.502 245.622,668.207 C244.003,668.835 242.594,669.801 241.101,671.201 C241.033,671.265 240.966,671.33 240.901,671.397 L215.962,696.97 C210.66,702.407 210.77,711.112 216.206,716.414 C221.643,721.716 230.348,721.607 235.65,716.17 L260.589,690.597 C265.891,685.16 265.782,676.455 260.345,671.153 C260.195,671.006 260.038,670.868 259.874,670.738 C259.634,670.547 258.991,670.024 258.859,669.92 C258.287,669.471 257.775,669.137 257.098,668.827 C256.688,668.639 255.116,668.093 254.371,667.8 z M773.391,679.849 C774.804,679.741 774.543,679.656 775.61,680.551 L779.624,675.76 L775.15,680.124 L800.089,705.697 C800.571,706.191 800.561,706.983 800.067,707.465 C799.572,707.947 798.781,707.937 798.299,707.443 L773.36,681.869 C772.878,681.375 772.888,680.584 773.382,680.102 L769.019,675.627 L772.911,680.517 C773.232,680.261 773.832,679.774 773.863,679.75 C773.724,679.859 773.463,680.029 773.108,680.191 C772.994,680.243 772.932,680.268 772.905,680.278 C772.95,680.261 773.317,680.135 773.292,680.143 C773.881,679.938 774.45,679.729 775.202,679.433 L772.915,673.617 L773.391,679.849 z M772.44,667.385 C771.819,667.432 771.208,667.572 770.629,667.8 C769.884,668.093 768.311,668.639 767.902,668.827 C767.225,669.137 766.713,669.471 766.141,669.92 C766.009,670.024 765.366,670.547 765.126,670.738 C764.962,670.868 764.805,671.007 764.655,671.153 C759.218,676.455 759.109,685.16 764.411,690.597 L789.35,716.17 C794.652,721.607 803.357,721.716 808.794,716.414 C814.231,711.112 814.34,702.407 809.038,696.97 L784.099,671.397 C783.953,671.247 783.799,671.105 783.639,670.97 C780.073,667.982 777.112,667.028 772.44,667.385 z M853.052,556.732 C853.86,556.735 854.466,556.724 855.089,556.701 C855.063,556.702 855.451,556.688 855.499,556.686 C855.471,556.687 855.403,556.687 855.279,556.679 C854.888,556.656 854.584,556.593 854.415,556.541 C854.452,556.553 855.188,556.79 855.58,556.912 L857.436,550.944 L854.99,556.695 L887.567,570.547 C888.202,570.818 888.498,571.552 888.228,572.187 C887.958,572.822 887.224,573.118 886.589,572.848 L854.012,558.996 C853.377,558.726 853.081,557.992 853.351,557.356 L847.599,554.911 L853.295,557.485 C853.531,556.963 853.325,557.146 854.067,556.827 C854.226,556.759 854.409,556.683 854.652,556.585 C854.797,556.526 855.345,556.306 855.413,556.278 L853.076,550.482 L853.052,556.732 z M853.099,544.232 C852.29,544.229 851.489,544.383 850.738,544.685 C850.685,544.707 850.123,544.933 849.958,545 C849.64,545.128 849.382,545.235 849.131,545.343 C845.692,546.821 843.524,548.752 841.904,552.337 L841.848,552.465 C838.876,559.454 842.132,567.528 849.121,570.499 L881.697,584.351 C888.686,587.323 896.76,584.067 899.731,577.078 C902.703,570.09 899.447,562.016 892.458,559.044 L859.882,545.192 C859.689,545.11 859.492,545.038 859.292,544.976 C859,544.885 858.21,544.63 858.05,544.581 C857.355,544.37 856.756,544.245 856.013,544.201 C855.563,544.175 853.9,544.235 853.099,544.232 z M170.495,556.566 C171.129,556.715 171.374,556.922 171.923,557.921 L177.401,554.911 L171.649,557.357 C171.919,557.992 171.623,558.726 170.988,558.996 L138.411,572.848 C137.776,573.118 137.042,572.822 136.772,572.187 C136.502,571.552 136.798,570.818 137.433,570.547 L170.01,556.695 L167.564,550.944 L169.42,556.912 C169.812,556.79 170.547,556.553 170.585,556.541 C170.416,556.593 170.112,556.656 169.721,556.679 C169.597,556.687 169.529,556.687 169.501,556.686 C169.549,556.688 169.937,556.702 169.91,556.701 C170.534,556.724 171.14,556.735 171.947,556.732 L171.924,550.482 L170.495,556.566 z M173.353,544.397 C172.877,544.285 172.39,544.23 171.901,544.232 C171.1,544.235 169.437,544.175 168.987,544.201 C168.243,544.245 167.645,544.37 166.95,544.581 C166.789,544.63 166,544.885 165.708,544.976 C165.508,545.038 165.311,545.11 165.118,545.192 L132.542,559.044 C125.553,562.016 122.297,570.09 125.269,577.078 C128.24,584.067 136.315,587.323 143.303,584.351 L175.879,570.499 C182.868,567.528 186.124,559.453 183.152,552.465 C183.07,552.272 182.979,552.084 182.878,551.9 C180.72,547.974 177.685,545.415 173.353,544.397 z M142.312,411.334 C143.003,411.334 143.563,411.894 143.562,412.584 C143.563,413.275 143.003,413.834 142.313,413.834 L107.06,413.834 C106.37,413.834 105.81,413.275 105.81,412.584 C105.81,411.894 106.37,411.334 107.06,411.334 L142.312,411.334 z M142.312,398.834 L107.06,398.834 C99.466,398.835 93.31,404.991 93.31,412.584 C93.31,420.178 99.466,426.335 107.06,426.334 L142.312,426.334 C149.906,426.335 156.063,420.178 156.062,412.584 C156.063,404.991 149.907,398.835 142.313,398.834 z M917.94,411.334 C918.63,411.334 919.19,411.894 919.19,412.584 C919.19,413.275 918.63,413.834 917.94,413.834 L882.687,413.834 C881.997,413.834 881.437,413.275 881.437,412.584 C881.437,411.894 881.997,411.334 882.688,411.334 L917.94,411.334 z M917.94,398.834 L882.687,398.834 C875.094,398.835 868.938,404.991 868.937,412.584 C868.938,420.178 875.094,426.335 882.688,426.334 L917.94,426.334 C925.534,426.335 931.69,420.178 931.69,412.584 C931.69,404.991 925.534,398.835 917.94,398.834 z M136.473,252.357 C137.281,252.36 137.887,252.349 138.51,252.327 C138.484,252.328 138.872,252.313 138.92,252.312 C138.892,252.312 138.824,252.312 138.7,252.305 C138.309,252.282 138.005,252.218 137.836,252.167 C137.873,252.178 138.609,252.415 139.001,252.537 L140.857,246.569 L138.411,252.321 L170.988,266.173 C171.623,266.443 171.919,267.177 171.649,267.812 C171.379,268.448 170.645,268.744 170.01,268.474 L137.433,254.621 C136.798,254.351 136.502,253.617 136.772,252.982 L131.02,250.536 L136.716,253.11 C136.952,252.588 136.745,252.772 137.488,252.453 C137.647,252.384 137.83,252.308 138.073,252.21 C138.218,252.151 138.766,251.931 138.834,251.903 L136.497,246.107 L136.473,252.357 z M136.52,239.857 C135.711,239.854 134.91,240.008 134.159,240.311 C134.106,240.332 133.544,240.558 133.379,240.625 C133.061,240.753 132.803,240.86 132.552,240.968 C129.113,242.447 126.945,244.377 125.325,247.962 L125.269,248.091 C122.297,255.079 125.553,263.153 132.542,266.125 L165.118,279.977 C172.107,282.948 180.181,279.692 183.152,272.704 C186.124,265.716 182.868,257.641 175.879,254.67 L143.303,240.817 C143.11,240.736 142.913,240.663 142.713,240.601 C142.421,240.51 141.631,240.256 141.471,240.207 C140.776,239.996 140.177,239.87 139.434,239.826 C138.984,239.8 137.321,239.86 136.52,239.857 z M887.074,252.191 C887.708,252.34 887.953,252.547 888.502,253.546 L893.98,250.536 L888.228,252.982 C888.498,253.617 888.202,254.351 887.567,254.621 L854.99,268.473 C854.355,268.744 853.621,268.448 853.351,267.812 C853.081,267.177 853.377,266.443 854.012,266.173 L886.589,252.321 L884.143,246.569 L885.999,252.537 C886.391,252.415 887.126,252.178 887.164,252.167 C886.995,252.218 886.691,252.282 886.3,252.305 C886.176,252.312 886.108,252.312 886.08,252.312 C886.128,252.313 886.516,252.328 886.489,252.327 C887.113,252.349 887.719,252.36 888.526,252.357 L888.503,246.107 L887.074,252.191 z M889.932,240.023 C889.456,239.911 888.969,239.855 888.48,239.857 C887.679,239.86 886.016,239.8 885.566,239.826 C884.822,239.87 884.224,239.996 883.529,240.207 C883.368,240.256 882.579,240.51 882.287,240.601 C882.087,240.663 881.89,240.736 881.697,240.817 L849.121,254.67 C842.132,257.641 838.876,265.715 841.848,272.704 C844.819,279.692 852.893,282.948 859.882,279.977 L892.458,266.125 C899.447,263.153 902.703,255.079 899.731,248.09 C899.649,247.898 899.558,247.709 899.457,247.526 C897.299,243.6 894.264,241.04 889.932,240.023 z M798.247,117.035 C798.999,117.331 799.568,117.54 800.157,117.745 C800.132,117.737 800.499,117.864 800.544,117.88 C800.517,117.87 800.454,117.846 800.341,117.794 C799.985,117.631 799.725,117.461 799.586,117.352 C799.617,117.376 800.216,117.864 800.537,118.119 L804.43,113.229 L800.067,117.704 C800.561,118.186 800.571,118.977 800.089,119.472 L775.15,145.045 C774.668,145.539 773.877,145.549 773.382,145.067 C772.888,144.585 772.878,143.794 773.36,143.299 L798.299,117.726 L793.824,113.363 L798.099,117.922 C798.366,117.672 798.56,117.512 798.687,117.425 C798.704,117.414 798.663,117.436 798.589,117.464 C798.489,117.503 798.427,117.516 798.483,117.511 C798.711,117.49 799.019,117.481 799.847,117.475 C800.247,117.472 800.387,117.471 800.612,117.468 L800.534,111.219 L798.247,117.035 z M802.82,105.402 C802.067,105.106 801.264,104.959 800.455,104.969 C800.26,104.972 800.133,104.973 799.755,104.976 C797.042,104.995 795.891,105.104 794.071,105.809 C792.452,106.437 791.043,107.403 789.55,108.803 C789.482,108.867 789.415,108.932 789.35,108.999 L764.411,134.572 C759.109,140.009 759.218,148.714 764.655,154.016 C770.092,159.318 778.797,159.209 784.099,153.772 L809.038,128.199 C814.34,122.762 814.231,114.057 808.794,108.755 C808.644,108.609 808.487,108.47 808.323,108.34 C808.083,108.149 807.44,107.626 807.308,107.522 C806.736,107.073 806.224,106.74 805.547,106.429 C805.138,106.242 803.565,105.695 802.82,105.402 z M224.941,117.451 C226.355,117.343 226.094,117.259 227.161,118.153 L231.176,113.363 L226.701,117.726 L251.64,143.299 C252.122,143.794 252.112,144.585 251.618,145.067 C251.123,145.549 250.332,145.539 249.85,145.045 L224.911,119.472 C224.429,118.977 224.439,118.186 224.933,117.704 L220.57,113.229 L224.462,118.119 C224.783,117.864 225.383,117.376 225.414,117.352 C225.275,117.461 225.014,117.631 224.659,117.794 C224.546,117.846 224.483,117.87 224.456,117.88 C224.501,117.864 224.868,117.737 224.843,117.745 C225.432,117.54 226.001,117.331 226.753,117.035 L224.466,111.219 L224.941,117.451 z M223.991,104.987 C223.37,105.034 222.759,105.174 222.18,105.402 C221.435,105.695 219.862,106.242 219.453,106.429 C218.776,106.74 218.264,107.073 217.692,107.522 C217.56,107.626 216.917,108.149 216.677,108.34 C216.513,108.47 216.356,108.609 216.206,108.755 C210.77,114.057 210.66,122.762 215.962,128.199 L240.901,153.772 C246.203,159.209 254.908,159.318 260.345,154.016 C265.782,148.715 265.891,140.009 260.589,134.572 L235.65,108.999 C235.504,108.849 235.35,108.707 235.19,108.572 C231.624,105.584 228.663,104.631 223.991,104.987 z" fill="rgba(0,0,0,0.746)" clip-path="url(#Clip_1)" filter="url(#Shadow_2)"/>
          </g>
        </g>
        <g id="Bulb">
          <path d="M360.029,809.796 L360.029,761.401 C360.029,710.868 327.348,662.13 289.52,605.709 C243.885,537.645 198.302,461.065 198.302,365.939 C198.302,198.524 336.498,61.75 513.917,61.75 C691.337,61.75 831.144,197.096 831.144,364.51 C831.144,459.637 783.95,537.645 738.315,605.709 C700.487,662.13 667.806,710.868 667.806,761.401 L667.806,809.796 L360.029,809.796 z" fill="url(#Gradient_1)"/>
          <path d="M360.029,809.796 L360.029,761.401 C360.029,710.868 327.348,662.13 289.52,605.709 C243.885,537.645 198.302,461.065 198.302,365.939 C198.302,198.524 336.498,61.75 513.917,61.75 C691.337,61.75 831.144,197.096 831.144,364.51 C831.144,459.637 783.95,537.645 738.315,605.709 C700.487,662.13 667.806,710.868 667.806,761.401 L667.806,809.796 L360.029,809.796 z" fill-opacity="0" stroke="#DB9700" stroke-width="1"/>
          <g>
            <path d="M513.917,61.25 C690.916,61.25 831.644,196.15 831.644,364.51 C831.644,408.81 821.537,451.605 802.301,495.459 C787.18,529.928 768.475,561.624 738.73,605.987 C716.157,639.655 706.994,653.872 697.126,671.4 C684.285,694.21 675.925,713.975 671.624,732.925 C669.424,742.621 668.306,752.074 668.306,761.401 L668.306,810.296 L359.529,810.296 L359.529,761.401 C359.529,752.074 358.411,742.621 356.211,732.925 C351.91,713.975 343.55,694.21 330.709,671.4 C320.841,653.872 311.678,639.655 289.104,605.987 C259.88,562.399 241.195,530.525 226.339,496.171 C207.611,452.863 197.802,410.333 197.802,365.939 C197.802,196.999 337.507,61.25 513.917,61.25 z" fill="rgba(0,0,0,0.719)" clip-path="url(#Clip_3)" filter="url(#Shadow_4)"/>
            <path d="M513.917,73.75 C683.925,73.75 819.144,202.983 819.144,364.51 C819.144,406.148 809.826,447.187 790.854,490.437 C776.656,522.804 759.063,553.216 728.348,599.026 C704.589,634.463 695.926,648.051 686.233,665.268 C672.599,689.487 663.956,710.237 659.434,730.159 C657.019,740.798 655.806,751.173 655.806,761.401 L655.806,810.296 L668.306,797.796 L359.529,797.796 L372.029,810.296 L372.029,761.401 C372.029,751.173 370.816,740.798 368.401,730.159 C363.879,710.237 355.236,689.487 341.602,665.268 C331.909,648.051 323.246,634.462 299.487,599.026 C269.381,554.124 251.772,523.491 237.812,491.209 C219.36,448.539 210.302,407.73 210.302,365.939 C210.302,203.621 344.709,73.75 513.917,73.75 z M513.917,48.75 C331.09,48.75 185.302,189.618 185.302,365.939 C185.302,411.273 195.104,455.433 214.866,501.132 C229.518,535.015 247.84,566.887 278.722,612.949 C302.142,647.88 310.526,661.03 319.817,677.532 C332.351,699.797 340.092,718.381 344.021,735.692 C346.032,744.553 347.029,753.077 347.029,761.401 L347.029,810.296 C347.029,817.2 352.625,822.796 359.529,822.796 L668.306,822.796 C675.21,822.796 680.806,817.2 680.806,810.296 L680.806,761.401 C680.806,753.077 681.803,744.553 683.814,735.692 C687.743,718.381 695.484,699.797 708.018,677.532 C717.309,661.03 725.692,647.88 749.113,612.949 C780.582,566.013 798.865,534.407 813.748,500.48 C834.057,454.182 844.144,409.756 844.144,364.51 C844.144,188.916 697.486,48.75 513.917,48.75 z" fill="rgba(0,0,0,0.719)" clip-path="url(#Clip_3)" filter="url(#Shadow_4)"/>
          </g>
        </g>
        <g id="Filament">
          <path d="M251.851,404.079 C389.942,404.079 497.081,585.343 497.081,810.239" fill-opacity="0" stroke="#4A2E00" stroke-width="2" stroke-opacity="0.853"/>
          <path d="M781.338,404.065 C643.247,404.065 531.067,584.727 531.067,810.272" fill-opacity="0" stroke="#4A2E00" stroke-width="2" stroke-opacity="0.853"/>
        </g>
        <g id="Sound_Wave">
          <path d="M251.892,408.952 C248.81,408.952 246.312,406.454 246.312,403.373 C246.312,400.291 248.81,397.793 251.892,397.793 C254.974,397.793 257.472,400.291 257.472,403.373 C257.472,406.454 254.974,408.952 251.892,408.952 z" fill="#156197"/>
          <path d="M775.722,408.952 C772.64,408.952 770.142,406.454 770.142,403.373 C770.142,400.291 772.64,397.793 775.722,397.793 C778.803,397.793 781.302,400.291 781.302,403.373 C781.302,406.454 778.803,408.952 775.722,408.952 z" fill="#156197"/>
          <g>
            <path d="M781.338,404.066 C781.338,404.066 766.474,404.066 757.005,404.066 C747.536,404.066 735.362,336.431 735.362,404.066 C735.362,471.7 717.777,487.932 717.777,404.065 C717.777,320.199 701.544,290.439 701.544,404.066 C701.544,517.692 684.636,709.774 684.636,404.066 C684.636,98.357 670.432,348.605 670.432,404.065 C670.432,459.526 655.553,509.575 655.553,404.065 C655.553,298.556 642.702,266.091 642.702,404.065 C642.702,542.04 629.175,535.277 629.175,404.066 C629.175,272.854 612.267,249.182 612.267,404.066 C612.267,558.949 596.711,745.62 596.711,404.065 C596.711,62.511 581.831,274.207 581.831,404.066 C581.831,533.924 566.275,510.252 566.275,404.065 C566.275,297.879 553.425,345.9 553.425,404.065 C553.425,462.231 539.898,670.546 539.898,404.065 C539.898,137.585 526.371,310.053 526.371,404.065 C526.371,498.078 512.167,852.483 512.167,404.065 C512.167,-44.352 497.964,174.784 497.964,404.065 C497.964,633.347 485.114,645.521 485.114,404.065 C485.114,162.61 472.939,341.165 472.939,404.065 C472.939,466.966 461.442,525.808 461.442,404.065 C461.442,282.323 448.591,268.796 448.591,404.066 C448.591,539.335 437.769,450.057 437.769,404.065 C437.769,358.074 427.624,346.576 427.624,404.065 C427.624,461.555 416.803,420.298 416.803,404.065 C416.803,387.833 403.952,149.083 403.952,404.065 C403.952,659.048 393.131,659.048 393.131,404.065 C393.131,149.083 383.773,269.473 383.773,404.066 C383.773,538.658 371.979,523.779 371.979,404.065 C371.979,284.352 359.298,308.701 359.298,404.066 C359.298,499.43 348.582,707.745 348.582,404.065 C348.582,100.386 337.612,211.307 337.612,404.066 C337.612,596.824 328.228,651.608 328.228,404.065 C328.228,156.523 319.985,510.928 319.985,404.066 C319.985,174.49 310.038,212.028 310.038,404.065 C310.038,590.737 301.161,432.472 301.161,404.066 C301.161,375.659 290.192,294.497 290.192,404.065 C290.192,513.634 278.799,404.066 277.447,404.066 C276.094,404.066 247.075,404.065 247.075,404.065 C247.075,404.065 276.094,404.065 277.447,404.065 C278.799,404.065 290.192,294.497 290.192,404.065 C290.192,513.634 301.161,432.472 301.161,404.065 C301.161,375.659 310.038,217.394 310.038,404.065 C310.038,596.103 319.985,633.641 319.985,404.065 C319.985,297.203 328.228,651.608 328.228,404.065 C328.228,156.523 337.612,211.307 337.612,404.065 C337.612,596.824 348.582,707.745 348.582,404.065 C348.582,100.386 359.298,308.701 359.298,404.065 C359.298,499.43 371.979,523.779 371.979,404.065 C371.979,284.352 383.773,269.473 383.773,404.065 C383.773,538.658 393.131,659.048 393.131,404.065 C393.131,149.083 403.952,149.083 403.952,404.065 C403.952,659.048 416.803,420.298 416.803,404.065 C416.803,387.833 427.624,346.576 427.624,404.065 C427.624,461.555 437.769,450.057 437.769,404.065 C437.769,358.074 448.591,268.796 448.591,404.065 C448.591,539.335 461.441,525.808 461.441,404.065 C461.441,282.323 472.939,341.165 472.939,404.065 C472.939,466.966 485.114,645.521 485.114,404.065 C485.114,162.61 497.964,174.784 497.964,404.065 C497.964,633.347 512.167,852.483 512.167,404.065 C512.167,-44.352 526.371,310.053 526.371,404.065 C526.371,498.078 539.898,670.546 539.898,404.065 C539.898,137.585 553.424,345.9 553.424,404.065 C553.424,462.231 566.275,510.252 566.275,404.065 C566.275,297.879 581.831,274.207 581.831,404.065 C581.831,533.924 596.711,745.62 596.711,404.065 C596.711,62.511 612.267,249.182 612.267,404.065 C612.267,558.949 629.175,535.277 629.175,404.065 C629.175,272.854 642.702,266.091 642.702,404.065 C642.702,542.04 655.553,509.575 655.553,404.065 C655.553,298.556 670.432,348.605 670.432,404.065 C670.432,459.526 684.636,709.774 684.636,404.065 C684.636,98.357 701.544,290.439 701.544,404.065 C701.544,517.692 717.777,487.932 717.777,404.065 C717.777,320.199 735.362,336.431 735.362,404.065 C735.362,471.7 747.536,404.065 757.005,404.065 C766.474,404.065 781.338,404.065 781.338,404.065" fill="#156197"/>
            <path d="M781.338,404.066 C781.338,404.066 766.474,404.066 757.005,404.066 C747.536,404.066 735.362,336.431 735.362,404.066 C735.362,471.7 717.777,487.932 717.777,404.065 C717.777,320.199 701.544,290.439 701.544,404.066 C701.544,517.692 684.636,709.774 684.636,404.066 C684.636,98.357 670.432,348.605 670.432,404.065 C670.432,459.526 655.553,509.575 655.553,404.065 C655.553,298.556 642.702,266.091 642.702,404.065 C642.702,542.04 629.175,535.277 629.175,404.066 C629.175,272.854 612.267,249.182 612.267,404.066 C612.267,558.949 596.711,745.62 596.711,404.065 C596.711,62.511 581.831,274.207 581.831,404.066 C581.831,533.924 566.275,510.252 566.275,404.065 C566.275,297.879 553.425,345.9 553.425,404.065 C553.425,462.231 539.898,670.546 539.898,404.065 C539.898,137.585 526.371,310.053 526.371,404.065 C526.371,498.078 512.167,852.483 512.167,404.065 C512.167,-44.352 497.964,174.784 497.964,404.065 C497.964,633.347 485.114,645.521 485.114,404.065 C485.114,162.61 472.939,341.165 472.939,404.065 C472.939,466.966 461.442,525.808 461.442,404.065 C461.442,282.323 448.591,268.796 448.591,404.066 C448.591,539.335 437.769,450.057 437.769,404.065 C437.769,358.074 427.624,346.576 427.624,404.065 C427.624,461.555 416.803,420.298 416.803,404.065 C416.803,387.833 403.952,149.083 403.952,404.065 C403.952,659.048 393.131,659.048 393.131,404.065 C393.131,149.083 383.773,269.473 383.773,404.066 C383.773,538.658 371.979,523.779 371.979,404.065 C371.979,284.352 359.298,308.701 359.298,404.066 C359.298,499.43 348.582,707.745 348.582,404.065 C348.582,100.386 337.612,211.307 337.612,404.066 C337.612,596.824 328.228,651.608 328.228,404.065 C328.228,156.523 319.985,510.928 319.985,404.066 C319.985,174.49 310.038,212.028 310.038,404.065 C310.038,590.737 301.161,432.472 301.161,404.066 C301.161,375.659 290.192,294.497 290.192,404.065 C290.192,513.634 278.799,404.066 277.447,404.066 C276.094,404.066 247.075,404.065 247.075,404.065 C247.075,404.065 276.094,404.065 277.447,404.065 C278.799,404.065 290.192,294.497 290.192,404.065 C290.192,513.634 301.161,432.472 301.161,404.065 C301.161,375.659 310.038,217.394 310.038,404.065 C310.038,596.103 319.985,633.641 319.985,404.065 C319.985,297.203 328.228,651.608 328.228,404.065 C328.228,156.523 337.612,211.307 337.612,404.065 C337.612,596.824 348.582,707.745 348.582,404.065 C348.582,100.386 359.298,308.701 359.298,404.065 C359.298,499.43 371.979,523.779 371.979,404.065 C371.979,284.352 383.773,269.473 383.773,404.065 C383.773,538.658 393.131,659.048 393.131,404.065 C393.131,149.083 403.952,149.083 403.952,404.065 C403.952,659.048 416.803,420.298 416.803,404.065 C416.803,387.833 427.624,346.576 427.624,404.065 C427.624,461.555 437.769,450.057 437.769,404.065 C437.769,358.074 448.591,268.796 448.591,404.065 C448.591,539.335 461.441,525.808 461.441,404.065 C461.441,282.323 472.939,341.165 472.939,404.065 C472.939,466.966 485.114,645.521 485.114,404.065 C485.114,162.61 497.964,174.784 497.964,404.065 C497.964,633.347 512.167,852.483 512.167,404.065 C512.167,-44.352 526.371,310.053 526.371,404.065 C526.371,498.078 539.898,670.546 539.898,404.065 C539.898,137.585 553.424,345.9 553.424,404.065 C553.424,462.231 566.275,510.252 566.275,404.065 C566.275,297.879 581.831,274.207 581.831,404.065 C581.831,533.924 596.711,745.62 596.711,404.065 C596.711,62.511 612.267,249.182 612.267,404.065 C612.267,558.949 629.175,535.277 629.175,404.065 C629.175,272.854 642.702,266.091 642.702,404.065 C642.702,542.04 655.553,509.575 655.553,404.065 C655.553,298.556 670.432,348.605 670.432,404.065 C670.432,459.526 684.636,709.774 684.636,404.065 C684.636,98.357 701.544,290.439 701.544,404.065 C701.544,517.692 717.777,487.932 717.777,404.065 C717.777,320.199 735.362,336.431 735.362,404.065 C735.362,471.7 747.536,404.065 757.005,404.065 C766.474,404.065 781.338,404.065 781.338,404.065" fill-opacity="0" stroke="#156197" stroke-width="2"/>
          </g>
        </g>
      </g>
      <g id="Stand">
        <path d="M359.021,787.236 L667.823,787.236 L667.823,946.179 L359.021,946.179 z" fill="#0F1422"/>
        <path d="M842.218,958.603 C842.218,958.603 662.922,892.207 513.509,892.207 C364.096,892.207 184.799,958.603 184.799,958.603 L184.799,1025 L842.218,1025 L842.218,958.603 z" fill="#0F1422"/>
      </g>
    </g>
  </g>
</svg>
